<svg version="1.1" xmlns="http://www.w3.org/2000/svg" width="512" height="512">
<path d="M0 0 C1.12590042 -0.01283524 2.25180084 -0.02567047 3.41181946 -0.03889465 C4.6180748 -0.04628159 5.82433014 -0.05366852 7.06713867 -0.0612793 C8.32789719 -0.06935104 9.5886557 -0.07742279 10.88761902 -0.08573914 C13.55809165 -0.09955571 16.22844199 -0.11057653 18.89892578 -0.11816406 C21.60358633 -0.12696325 24.3077229 -0.1476988 27.01220703 -0.1796875 C45.18632455 -0.37891385 62.3973352 -0.46264123 78.98510742 7.86450195 C79.69626709 8.19973877 80.40742676 8.53497559 81.14013672 8.88037109 C85.63101385 11.09150682 88.84859333 13.63320493 92.48510742 17.11450195 C101.13943118 24.06886926 113.10126554 22.07069006 123.63842773 22.1081543 C161.06897439 22.83732079 203.1903589 36.53535918 233.73510742 57.98950195 C240.79645811 62.88258283 246.66801549 62.77824202 255.03588867 62.2980957 C263.31812334 61.87505307 269.29242823 65.11992535 275.54760742 70.30200195 C280.93305997 75.47340631 283.83583054 81.16667129 286.17260742 88.17700195 C286.17260742 90.17700195 286.17260742 92.17700195 286.17260742 94.17700195 C286.76548259 102.42252733 290.73334409 106.31933375 296.17260742 112.17700195 C314.63122123 134.75399027 328.91856752 160.51681081 338.17260742 188.17700195 C338.45185059 189.01038086 338.73109375 189.84375977 339.01879883 190.70239258 C342.01398973 199.80608051 344.50014865 208.97466404 346.42260742 218.36450195 C346.57375 219.09870361 346.72489258 219.83290527 346.88061523 220.58935547 C349.830283 235.96857695 350.54762009 251.17901721 350.48510742 266.80200195 C350.48295227 267.77255524 350.48079712 268.74310852 350.47857666 269.74307251 C350.42754082 284.07131093 350.08019181 298.09885977 347.17260742 312.17700195 C346.97393066 313.16007324 346.77525391 314.14314453 346.57055664 315.15600586 C335.05482403 370.52640856 305.13899977 423.13973685 260.17260742 458.17700195 C258.91713633 459.1844871 257.66194643 460.19232272 256.40698242 461.20043945 C213.50444133 495.27447484 160.38583822 512.66862697 105.86010742 512.55200195 C104.41735947 512.55118622 104.41735947 512.55118622 102.94546509 512.550354 C78.56973799 512.48725741 55.54603347 509.24813698 32.17260742 502.17700195 C30.95395996 501.81662842 30.95395996 501.81662842 29.71069336 501.44897461 C6.07439887 494.31558536 -17.49748202 482.66938443 -37.11645508 467.68481445 C-38.09356445 466.93973633 -39.07067383 466.1946582 -40.07739258 465.42700195 C-40.88692383 464.7721582 -41.69645508 464.11731445 -42.53051758 463.44262695 C-44.76013779 461.93882352 -44.76013779 461.93882352 -47.34301758 462.38012695 C-48.16286133 462.6430957 -48.98270508 462.90606445 -49.82739258 463.17700195 C-50.95661133 463.5327832 -50.95661133 463.5327832 -52.10864258 463.89575195 C-52.84083008 464.15356445 -53.57301758 464.41137695 -54.32739258 464.67700195 C-64.11191779 467.98149564 -73.85441805 468.4282048 -83.37426758 463.98950195 C-93.72379545 458.21885611 -99.39881126 450.51115508 -102.82739258 439.17700195 C-103.64772338 433.74864902 -103.92809963 428.50353741 -103.86254883 423.01293945 C-103.86626419 421.46215158 -103.87219556 419.91136774 -103.88012695 418.3605957 C-103.89061404 415.96417477 -103.89019447 413.57072691 -103.8515625 411.17456055 C-103.67409011 398.82810011 -105.98339938 391.37337112 -112.82739258 381.17700195 C-132.15062093 346.53413116 -140.29732201 306.89631011 -140.13989258 267.55200195 C-140.13773743 266.58144867 -140.13558228 265.61089539 -140.13336182 264.6109314 C-140.08232598 250.28269298 -139.73497696 236.25514413 -136.82739258 222.17700195 C-136.62871582 221.19393066 -136.43003906 220.21085938 -136.2253418 219.19799805 C-128.09062639 180.08433648 -111.39394427 139.44564675 -83.69677734 109.90454102 C-81.33302462 106.45569088 -81.32980313 104.37142439 -81.32348633 100.21606445 C-81.31406509 99.54844086 -81.30464386 98.88081726 -81.29493713 98.19296265 C-81.26640866 96.06233043 -81.26319877 93.9328087 -81.26489258 91.80200195 C-81.23776622 76.2748759 -79.69428111 62.40267647 -72.82739258 48.17700195 C-72.40844727 47.27594727 -71.98950195 46.37489258 -71.55786133 45.4465332 C-61.88156326 26.12182265 -44.04965437 11.70491761 -23.85375977 4.4699707 C-16.02687813 1.90171362 -8.25513407 0.08262615 0 0 Z " fill="#BF7E52" transform="translate(150.827392578125,-0.177001953125)"/>
<path d="M0 0 C1.12590042 -0.01283524 2.25180084 -0.02567047 3.41181946 -0.03889465 C4.6180748 -0.04628159 5.82433014 -0.05366852 7.06713867 -0.0612793 C8.32789719 -0.06935104 9.5886557 -0.07742279 10.88761902 -0.08573914 C13.55809165 -0.09955571 16.22844199 -0.11057653 18.89892578 -0.11816406 C21.60358633 -0.12696325 24.3077229 -0.1476988 27.01220703 -0.1796875 C45.18632455 -0.37891385 62.3973352 -0.46264123 78.98510742 7.86450195 C79.69626709 8.19973877 80.40742676 8.53497559 81.14013672 8.88037109 C85.63101385 11.09150682 88.84859333 13.63320493 92.48510742 17.11450195 C101.13943118 24.06886926 113.10126554 22.07069006 123.63842773 22.1081543 C161.06897439 22.83732079 203.1903589 36.53535918 233.73510742 57.98950195 C240.79645811 62.88258283 246.66801549 62.77824202 255.03588867 62.2980957 C263.31812334 61.87505307 269.29242823 65.11992535 275.54760742 70.30200195 C280.93305997 75.47340631 283.83583054 81.16667129 286.17260742 88.17700195 C286.17260742 90.17700195 286.17260742 92.17700195 286.17260742 94.17700195 C286.76548259 102.42252733 290.73334409 106.31933375 296.17260742 112.17700195 C314.63122123 134.75399027 328.91856752 160.51681081 338.17260742 188.17700195 C338.45185059 189.01038086 338.73109375 189.84375977 339.01879883 190.70239258 C342.01398973 199.80608051 344.50014865 208.97466404 346.42260742 218.36450195 C346.57375 219.09870361 346.72489258 219.83290527 346.88061523 220.58935547 C349.830283 235.96857695 350.54762009 251.17901721 350.48510742 266.80200195 C350.48295227 267.77255524 350.48079712 268.74310852 350.47857666 269.74307251 C350.42754082 284.07131093 350.08019181 298.09885977 347.17260742 312.17700195 C346.97393066 313.16007324 346.77525391 314.14314453 346.57055664 315.15600586 C337.08230493 360.77779441 315.7072398 401.9118666 284.17260742 436.17700195 C283.84260742 436.17700195 283.51260742 436.17700195 283.17260742 436.17700195 C282.84260742 420.99700195 282.51260742 405.81700195 282.17260742 390.17700195 C286.79260742 389.84700195 291.41260742 389.51700195 296.17260742 389.17700195 C302.73446674 385.98025609 302.73446674 385.98025609 306.17260742 380.17700195 C306.71958265 376.97935745 306.73403462 373.8529207 306.70385742 370.61450195 C306.70959778 369.25023071 306.70959778 369.25023071 306.7154541 367.85839844 C306.71816697 365.94212736 306.71084968 364.02581886 306.6940918 362.10961914 C306.67267278 359.18592324 306.69391427 356.26468444 306.71948242 353.34106445 C306.71683903 351.47387156 306.71171383 349.60668019 306.70385742 347.73950195 C306.71600281 346.43613892 306.71600281 346.43613892 306.72839355 345.10644531 C306.64468038 339.65519301 305.81600935 336.4912485 302.17260742 332.17700195 C296.8758049 328.35515521 291.09095226 328.63160974 284.79760742 328.48950195 C283.77538086 328.4553418 282.7531543 328.42118164 281.69995117 328.38598633 C279.19094628 328.30391607 276.68227277 328.23463319 274.17260742 328.17700195 C273.99721436 327.40960693 273.82182129 326.64221191 273.64111328 325.8515625 C266.06432255 291.02314962 266.06432255 291.02314962 255.2175293 257.14746094 C253.01468083 251.11158087 253.21794858 246.47060384 254.17260742 240.17700195 C255.38101495 220.58685689 249.80841264 204.20113539 237.18823242 189.28637695 C234.91387036 186.90623061 233.14372843 185.36072755 229.86010742 184.73950195 C224.95025894 185.53877961 221.82327595 189.38102814 218.79370117 193.0871582 C212.60282859 202.02460753 208.62226619 210.82802565 205.17260742 221.17700195 C182.07260742 221.17700195 158.97260742 221.17700195 135.17260742 221.17700195 C133.19260742 215.89700195 131.21260742 210.61700195 129.17260742 205.17700195 C124.90338476 197.78209842 120.40784846 190.00049598 113.17260742 185.17700195 C110.04738909 185.01000963 110.04738909 185.01000963 107.17260742 185.17700195 C107.50260742 184.18700195 107.83260742 183.19700195 108.17260742 182.17700195 C109.74848633 182.13833008 109.74848633 182.13833008 111.35620117 182.09887695 C124.64115393 181.669707 124.64115393 181.669707 135.61010742 174.73950195 C139.9611852 167.60373439 139.50520231 160.96856436 139.48510742 152.80200195 C139.5012207 151.50004883 139.51733398 150.1980957 139.53393555 148.85668945 C139.53788767 141.11052663 139.30368506 135.70375056 134.84057617 129.2512207 C129.24256457 124.0077006 122.56697508 123.77183319 115.17260742 123.17700195 C114.98698242 121.47543945 114.98698242 121.47543945 114.79760742 119.73950195 C114.59135742 118.56387695 114.38510742 117.38825195 114.17260742 116.17700195 C111.65982859 114.92061254 109.27743702 114.84176859 106.51098633 114.58227539 C98.5537145 113.82086298 91.48440885 112.58019064 84.17260742 109.17700195 C83.26124023 108.75547852 82.34987305 108.33395508 81.41088867 107.8996582 C73.53068734 103.93208124 65.43063511 98.51318635 60.98510742 90.67700195 C59.32964516 87.86484207 59.32964516 87.86484207 55.89526367 87.17700195 C52.05326159 86.78286596 52.05326159 86.78286596 49.39916992 89.45825195 C48.51224115 90.51490785 47.64580984 91.58901436 46.79760742 92.67700195 C45.84701831 93.79726926 44.89125413 94.91316545 43.93041992 96.0246582 C43.46410156 96.56880371 42.9977832 97.11294922 42.51733398 97.67358398 C33.2031272 108.08696187 18.90872444 113.45983715 5.21768188 114.46832275 C0.68911865 114.63565971 -3.83924371 114.64466824 -8.37036133 114.65356445 C-10.03234602 114.66790353 -11.69431898 114.68366568 -13.35627747 114.70077515 C-17.6909047 114.74228095 -22.02545901 114.76751652 -26.36022949 114.78826904 C-33.33565122 114.82435379 -40.31089426 114.88495121 -47.28612709 114.94675827 C-49.71973748 114.96586329 -52.15329933 114.97757349 -54.58695984 114.9881897 C-56.06448478 114.99839238 -57.54200866 115.00874949 -59.01953125 115.01928711 C-60.31348312 115.02578278 -61.607435 115.03227844 -62.94059753 115.03897095 C-65.72222512 114.84765837 -65.72222512 114.84765837 -66.82739258 116.17700195 C-67.19499989 118.50518159 -67.52980839 120.83884045 -67.82739258 123.17700195 C-74.26239258 123.67200195 -74.26239258 123.67200195 -80.82739258 124.17700195 C-80.90230895 117.47333131 -80.9563526 110.76991166 -80.9921875 104.06591797 C-81.00714784 101.79178617 -81.02752344 99.51768257 -81.05371094 97.24365234 C-81.25164111 79.59681884 -80.63195129 64.34518519 -72.82739258 48.17700195 C-72.40844727 47.27594727 -71.98950195 46.37489258 -71.55786133 45.4465332 C-61.88156326 26.12182265 -44.04965437 11.70491761 -23.85375977 4.4699707 C-16.02687813 1.90171362 -8.25513407 0.08262615 0 0 Z " fill="#FECF0D" transform="translate(150.827392578125,-0.177001953125)"/>
<path d="M0 0 C1.42059526 0.00747748 2.84120096 0.01316327 4.2618103 0.01715088 C7.96752327 0.03228913 11.67259064 0.07146518 15.37805176 0.1159668 C19.17251863 0.15717774 22.96709171 0.1752165 26.76171875 0.1953125 C34.18258326 0.23797415 41.60291929 0.30607762 49.0234375 0.390625 C49.08293579 1.14462585 49.14243408 1.89862671 49.20373535 2.67547607 C49.32815002 4.16014374 49.32815002 4.16014374 49.45507812 5.67480469 C49.57526306 7.14611847 49.57526306 7.14611847 49.69787598 8.64715576 C50.58912077 16.15757241 54.61289253 22.69856815 60.3984375 27.453125 C69.01399763 33.31113437 76.57962864 34.42559705 87.0234375 33.390625 C95.74198099 31.37865343 101.93013853 26.29795002 107.3984375 19.390625 C110.80557171 13.10053107 111.22244403 7.59956626 112.0234375 0.390625 C121.9234375 0.390625 131.8234375 0.390625 142.0234375 0.390625 C144.65861292 10.93132666 142.60189825 17.16394111 139.3984375 27.140625 C130.64442709 55.11282455 124.29247489 83.39763226 120.0234375 112.390625 C118.48623047 112.44669922 118.48623047 112.44669922 116.91796875 112.50390625 C115.55725688 112.56959579 114.19658139 112.63604209 112.8359375 112.703125 C112.16240234 112.72568359 111.48886719 112.74824219 110.79492188 112.77148438 C105.45886848 113.05780919 102.27619733 114.45968801 98.2734375 117.890625 C96.05979428 120.54699686 95.89162962 123.17971184 95.84643555 126.49145508 C95.83360031 127.31273392 95.82076508 128.13401276 95.80754089 128.98017883 C95.80015396 129.86457138 95.79276703 130.74896393 95.78515625 131.66015625 C95.77304863 133.03079475 95.77304863 133.03079475 95.76069641 134.42912292 C95.74686743 136.36329253 95.73613997 138.29748642 95.72827148 140.23168945 C95.71106292 143.18162543 95.66716699 146.13043921 95.62304688 149.08007812 C95.6129191 150.96092927 95.60440326 152.84178993 95.59765625 154.72265625 C95.57139412 156.04013603 95.57139412 156.04013603 95.54460144 157.38423157 C95.56399361 162.89077321 96.34969973 166.02234974 100.0234375 170.390625 C103.16808008 172.99618599 105.73550889 173.57455976 109.69921875 173.96484375 C110.91411987 174.0879895 110.91411987 174.0879895 112.15356445 174.21362305 C112.77062256 174.27203369 113.38768066 174.33044434 114.0234375 174.390625 C114.04325684 175.41607422 114.06307617 176.44152344 114.08349609 177.49804688 C114.67926122 207.34759339 115.76135921 236.97106666 121.69140625 266.33203125 C122.0234375 268.390625 122.0234375 268.390625 122.0234375 272.390625 C114.83367931 271.88693353 108.10331706 270.63270676 101.1484375 268.765625 C99.64144287 268.36150391 99.64144287 268.36150391 98.10400391 267.94921875 C70.20881721 260.31224602 42.8349535 248.54218643 19.734375 230.8984375 C18.75726563 230.15335938 17.78015625 229.40828125 16.7734375 228.640625 C15.96390625 227.98578125 15.154375 227.3309375 14.3203125 226.65625 C12.09069229 225.15244657 12.09069229 225.15244657 9.5078125 225.59375 C8.27804688 225.98820312 8.27804688 225.98820312 7.0234375 226.390625 C6.270625 226.6278125 5.5178125 226.865 4.7421875 227.109375 C4.01 227.3671875 3.2778125 227.625 2.5234375 227.890625 C-7.26108771 231.19511869 -17.00358797 231.64182785 -26.5234375 227.203125 C-36.87296537 221.43247916 -42.54798118 213.72477813 -45.9765625 202.390625 C-47.192586 195.0960904 -47.09350312 187.85751659 -47.05078125 180.48046875 C-47.04567523 178.98095338 -47.0410323 177.48143639 -47.03678894 175.98191833 C-47.02625708 172.49499214 -47.01268282 169.00809016 -46.99798584 165.5211792 C-46.97102914 158.58981635 -46.96608147 151.65845746 -46.95947266 144.72705078 C-46.94580576 132.17582175 -46.90507131 119.62487477 -46.84445381 107.07378578 C-46.80961594 99.73608476 -46.78441874 92.39857972 -46.78100586 85.06079102 C-46.7779556 78.55119057 -46.75738873 72.04191739 -46.71603793 65.53244346 C-46.69493012 62.11972293 -46.68199587 58.70746575 -46.69040871 55.29467964 C-46.69532412 51.51177838 -46.66920024 47.73024255 -46.63598633 43.94750977 C-46.64461197 42.84874512 -46.65323761 41.74998047 -46.66212463 40.61791992 C-46.49224509 29.02856495 -42.15931092 18.67215911 -33.9765625 10.390625 C-31.13156886 8.02244593 -28.2683891 6.08179496 -24.9765625 4.390625 C-24.34145248 4.06171768 -23.70634247 3.73281036 -23.05198669 3.39393616 C-15.42443688 -0.12744506 -8.27148713 -0.12925272 0 0 Z " fill="#D9EAFB" transform="translate(93.9765625,236.609375)"/>
<path d="M0 0 C4.59127985 2.094268 6.38134676 4.93464314 9.34765625 8.92578125 C17.93474247 19.3908193 32.26086634 26.05887359 45.5625 27.625 C48.44622849 27.88023092 51.32457538 28.11490362 54.21484375 28.28125 C56.5625 28.625 56.5625 28.625 59.5625 30.625 C59.75 34.25 59.75 34.25 59.5625 37.625 C60.20316406 37.59019531 60.84382813 37.55539063 61.50390625 37.51953125 C67.25751342 37.33946307 71.50238384 37.56983553 76.5625 40.625 C81.49406231 45.27984138 84.33330297 48.75425739 84.73950195 55.61425781 C84.805908 59.36791892 84.84736886 63.12084919 84.875 66.875 C84.90400391 68.17308594 84.93300781 69.47117187 84.96289062 70.80859375 C85.01582999 78.79836529 84.80482526 84.97882282 79.18530273 91.13330078 C74.21312417 95.67026176 69.38878341 96.78424865 62.80249023 96.59521484 C57.71316936 96.51409566 53.91195598 96.60159973 49.765625 99.74609375 C47.42500432 102.59115855 45.47765844 105.47923355 43.5625 108.625 C42.91796875 109.55699219 42.2734375 110.48898438 41.609375 111.44921875 C35.19103168 120.90144284 32.09779648 129.94249222 30.8125 141.25 C30.4 144.67375 29.9875 148.0975 29.5625 151.625 C19.6625 151.625 9.7625 151.625 -0.4375 151.625 C-0.4375 154.595 -0.4375 157.565 -0.4375 160.625 C-1.53566861 168.69085911 -6.55371744 174.315697 -12.4375 179.625 C-21.09409094 185.65838156 -28.98548477 186.44318421 -39.4375 185.625 C-42.79165487 184.75540429 -45.49960005 183.44342937 -48.4375 181.625 C-49.13488281 181.2125 -49.83226562 180.8 -50.55078125 180.375 C-56.9982919 176.10094397 -61.00429652 169.92461043 -63.4375 162.625 C-63.5060495 160.73029184 -63.52230372 158.8333166 -63.5 156.9375 C-63.49097656 155.94363281 -63.48195312 154.94976562 -63.47265625 153.92578125 C-63.45525391 152.78689453 -63.45525391 152.78689453 -63.4375 151.625 C-71.60966323 151.6632158 -79.78128426 151.72280511 -87.95306969 151.80890274 C-91.74851462 151.84823648 -95.54373245 151.88049328 -99.33935547 151.89599609 C-103.009565 151.91125676 -106.67914959 151.94586536 -110.34907913 151.99330902 C-111.74188395 152.00802677 -113.13477805 152.01603544 -114.52766037 152.01688385 C-125.83165519 152.03068054 -134.27161315 153.8038749 -143.4375 160.625 C-144.2625 161.16125 -145.0875 161.6975 -145.9375 162.25 C-153.02542085 168.98352481 -157.48024859 178.71992856 -157.83622742 188.44641113 C-157.86248824 190.72521808 -157.87267282 193.00424658 -157.86987305 195.28320312 C-157.8800647 196.53282837 -157.89025635 197.78245361 -157.90075684 199.06994629 C-157.92566623 202.4744483 -157.93759269 205.87851979 -157.94361091 209.28307533 C-157.95303001 212.8492245 -157.97923608 216.41525063 -158.00361633 219.98132324 C-158.0471882 226.72423244 -158.07579219 233.46711762 -158.09893972 240.21012449 C-158.12604152 247.89100892 -158.16994982 255.571769 -158.21522844 263.25256443 C-158.30794121 279.04331225 -158.3796829 294.83408351 -158.4375 310.625 C-161.27949416 307.85917364 -163.31504455 305.41992318 -165.171875 301.90625 C-165.65954346 300.98457031 -166.14721191 300.06289063 -166.6496582 299.11328125 C-167.157146 298.12714844 -167.66463379 297.14101563 -168.1875 296.125 C-168.71754639 295.09761719 -169.24759277 294.07023437 -169.79370117 293.01171875 C-179.87068358 273.16668555 -187.30422249 252.07472595 -191.75 230.25 C-191.89727539 229.52748047 -192.04455078 228.80496094 -192.19628906 228.06054688 C-195.09036239 212.72941368 -195.81228976 197.56727809 -195.75 182 C-195.74784485 181.02944672 -195.7456897 180.05889343 -195.74346924 179.05892944 C-195.6924334 164.73069102 -195.34508438 150.70314218 -192.4375 136.625 C-192.23882324 135.64192871 -192.04014648 134.65885742 -191.83544922 133.64599609 C-183.45429155 93.34738105 -165.97554429 51.16304429 -136.4375 21.625 C-136.4375 27.235 -136.4375 32.845 -136.4375 38.625 C-135.7775 38.295 -135.1175 37.965 -134.4375 37.625 C-132.56370395 37.55466231 -130.68748898 37.5406978 -128.8125 37.5625 C-127.30816406 37.57603516 -127.30816406 37.57603516 -125.7734375 37.58984375 C-125.00257812 37.60144531 -124.23171875 37.61304688 -123.4375 37.625 C-123.47875 36.51125 -123.52 35.3975 -123.5625 34.25 C-123.4375 30.625 -123.4375 30.625 -121.4375 28.625 C-118.44390869 28.3734436 -118.44390869 28.3734436 -114.54785156 28.36962891 C-113.48386894 28.36419823 -113.48386894 28.36419823 -112.39839172 28.35865784 C-110.85369403 28.35175336 -109.30897188 28.34926036 -107.76425934 28.35060501 C-105.30692685 28.35157083 -102.85003126 28.33861567 -100.39276123 28.32162476 C-93.40429224 28.27541095 -86.41586251 28.25081024 -79.42724609 28.24414062 C-75.15181631 28.23907671 -70.8768326 28.2145681 -66.60155487 28.17881393 C-64.98315888 28.16911286 -63.36470069 28.16663012 -61.74628448 28.17198563 C-43.1832156 28.23044612 -26.5823716 24.0118762 -12.6796875 10.953125 C-10.54012971 8.73156325 -8.65548165 6.4220789 -6.75 4 C-4.30941065 1.17165346 -3.83928406 0.69805165 0 0 Z " fill="#FEC886" transform="translate(206.4375,85.375)"/>
<path d="M0 0 C1.21494141 0.00193359 2.42988281 0.00386719 3.68164062 0.00585938 C9.85245942 0.09715368 14.14797994 0.35551578 19.5625 3.5625 C24.44287325 8.97048117 24.74177269 12.62840872 24.80078125 19.734375 C24.808853 20.64954895 24.81692474 21.5647229 24.82524109 22.50762939 C24.83908629 24.4477753 24.84980649 26.38794561 24.85766602 28.328125 C24.8748515 31.28693248 24.91873007 34.24461467 24.96289062 37.203125 C24.97302001 39.08853345 24.98153535 40.97395141 24.98828125 42.859375 C25.00578934 43.74083191 25.02329742 44.62228882 25.04133606 45.53045654 C25.02197466 51.04962117 24.23804442 54.17967686 20.5625 58.5625 C16.04289065 62.53427792 12.26636594 62.67904923 6.375 62.625 C5.10269531 62.61597656 3.83039063 62.60695313 2.51953125 62.59765625 C1.05580078 62.58025391 1.05580078 62.58025391 -0.4375 62.5625 C-0.19940361 63.42222412 -0.19940361 63.42222412 0.04350281 64.29931641 C1.5414181 70.8312541 1.16027238 77.90579272 1.29711914 84.57666016 C1.34868589 86.5536548 1.42356916 88.53019034 1.52270508 90.50537109 C2.37254744 107.77729506 2.37254744 107.77729506 -1.98413086 113.45727539 C-4.85546568 116.5698255 -8.03229477 119.05507941 -11.4375 121.5625 C-13.17215496 123.03522657 -14.90233065 124.51327147 -16.625 126 C-18.55640365 127.52856803 -20.49457837 129.04859914 -22.4375 130.5625 C-23.6929711 131.56998515 -24.948161 132.57782077 -26.203125 133.5859375 C-68.30666876 167.02539361 -120.99580093 185.06229376 -174.63989258 184.82324219 C-177.50037759 184.81249858 -180.36023668 184.82321888 -183.22070312 184.8359375 C-210.85013141 184.85618429 -210.85013141 184.85618429 -217.4375 181.5625 C-218.21606695 179.00930473 -218.83099623 176.54455631 -219.375 173.9375 C-219.63277222 172.7146228 -219.63277222 172.7146228 -219.89575195 171.46704102 C-222.25175194 159.42246939 -223.11249947 147.12661432 -224.13842773 134.91113281 C-224.37927659 132.21441204 -224.68352331 129.54154236 -225.015625 126.85546875 C-225.85892523 118.59591121 -225.54071252 110.22902811 -225.5 101.9375 C-225.4949755 100.152345 -225.49041428 98.36718864 -225.48632812 96.58203125 C-225.47539651 92.2421533 -225.4581841 87.90234198 -225.4375 83.5625 C-226.04875732 83.58135254 -226.66001465 83.60020508 -227.28979492 83.61962891 C-228.09521729 83.63429199 -228.90063965 83.64895508 -229.73046875 83.6640625 C-230.52735107 83.68291504 -231.3242334 83.70176758 -232.14526367 83.72119141 C-235.80521051 83.46781347 -237.7358784 81.94997955 -240.4375 79.5625 C-244.77601413 74.38830269 -245.01675254 70.42010507 -244.93359375 63.96484375 C-244.93504898 63.05295792 -244.93650421 62.14107208 -244.93800354 61.20155334 C-244.93634923 59.28106478 -244.92484057 57.36056231 -244.90405273 55.44018555 C-244.87505705 52.50577375 -244.88346184 49.5731659 -244.89648438 46.63867188 C-244.8902475 44.76822042 -244.88185696 42.89777464 -244.87109375 41.02734375 C-244.87402939 40.15327377 -244.87696503 39.2792038 -244.87998962 38.37864685 C-244.78535398 32.25227586 -243.56540985 28.95639858 -239.4375 24.3125 C-234.51305334 20.00360917 -227.22896104 21.29807532 -221.0625 21.25 C-219.83015625 21.22099609 -218.5978125 21.19199219 -217.328125 21.16210938 C-215.54535156 21.14954102 -215.54535156 21.14954102 -213.7265625 21.13671875 C-212.64068848 21.12213623 -211.55481445 21.10755371 -210.43603516 21.0925293 C-206.73887525 21.67199785 -205.08192556 22.96630287 -202.4375 25.5625 C-201.65359089 28.46789742 -202.09126677 30.49586281 -202.4375 33.5625 C-203.0975 34.2225 -203.7575 34.8825 -204.4375 35.5625 C-204.08394564 37.82524788 -203.46205574 39.51338852 -202.4375 41.5625 C-202.04923696 46.70698526 -202.64323699 49.29021892 -205.4375 53.5625 C-204.50091049 53.54473511 -203.56432098 53.52697021 -202.59934998 53.50866699 C-193.75740931 53.34624133 -184.91577263 53.22645156 -176.07267666 53.14800262 C-171.52657667 53.10631339 -166.98168427 53.04980452 -162.4362793 52.95898438 C-158.04655731 52.8718274 -153.65799389 52.82417874 -149.26747322 52.80348206 C-147.59563014 52.78874072 -145.923848 52.75995173 -144.25250053 52.71665955 C-131.1120418 52.38993709 -131.1120418 52.38993709 -126.89334106 55.34399414 C-125.15937059 57.33487501 -123.81556752 59.32003943 -122.4375 61.5625 C-118.0537723 64.40599905 -112.49940666 64.31640099 -107.4375 63.5625 C-103.33191595 61.88985465 -100.13729453 60.13572624 -98.29760742 55.99987793 C-96.4375 53.5625 -96.4375 53.5625 -93.13574219 52.95690918 C-91.75203145 52.93990696 -90.36782155 52.95048222 -88.984375 52.98242188 C-88.22797729 52.97996964 -87.47157959 52.9775174 -86.69226074 52.97499084 C-85.05039273 52.97281824 -83.40847882 52.98211039 -81.76672363 53.0014801 C-79.16917328 53.03146153 -76.57327398 53.03053186 -73.97558594 53.0213623 C-67.52567183 53.00505286 -61.07626379 53.04251113 -54.62646484 53.07794189 C-49.17592912 53.10584039 -43.72609198 53.11361556 -38.2755127 53.09437561 C-35.71405577 53.09375642 -33.15402563 53.12298014 -30.59277344 53.15319824 C-29.025388 53.15112419 -27.45800357 53.14765956 -25.890625 53.14257812 C-24.81983704 53.16729942 -24.81983704 53.16729942 -23.72741699 53.19252014 C-21.50577509 53.22100045 -21.50577509 53.22100045 -18.4375 52.5625 C-16.31763101 50.27925554 -16.31763101 50.27925554 -15.4375 47.5625 C-16.16945434 45.5960948 -16.16945434 45.5960948 -17.4375 43.5625 C-18.88596797 37.32294568 -18.88596797 37.32294568 -17 34.125 C-16.484375 33.609375 -15.96875 33.09375 -15.4375 32.5625 C-15.746875 32.046875 -16.05625 31.53125 -16.375 31 C-17.77135502 27.7965973 -18.25062779 25.0507813 -18.4375 21.5625 C-17 19.125 -17 19.125 -15.4375 17.5625 C-15.746875 17.046875 -16.05625 16.53125 -16.375 16 C-17.81318927 12.70062462 -18.37515111 10.17873579 -18.4375 6.5625 C-14.34329609 -1.32656744 -8.13042905 -0.24507375 0 0 Z " fill="#BF7E52" transform="translate(433.4375,327.4375)"/>
<path d="M0 0 C1.12590042 -0.01283524 2.25180084 -0.02567047 3.41181946 -0.03889465 C4.6180748 -0.04628159 5.82433014 -0.05366852 7.06713867 -0.0612793 C8.32789719 -0.06935104 9.5886557 -0.07742279 10.88761902 -0.08573914 C13.55809165 -0.09955571 16.22844199 -0.11057653 18.89892578 -0.11816406 C21.60358633 -0.12696325 24.3077229 -0.1476988 27.01220703 -0.1796875 C45.163469 -0.3786633 62.42401748 -0.48692706 78.98510742 7.86450195 C79.68104004 8.20481445 80.37697266 8.54512695 81.09399414 8.89575195 C91.05175907 13.93765824 99.15347566 20.49912015 106.17260742 29.17700195 C107.01178711 30.0606543 107.01178711 30.0606543 107.86791992 30.9621582 C118.96319182 42.67936238 127.32500213 60.32362114 127.28613281 76.60986328 C127.28605728 77.67058548 127.28598175 78.73130768 127.28590393 79.82417297 C127.28074265 80.95767685 127.27558136 82.09118073 127.27026367 83.2590332 C127.26814125 85.01300667 127.26814125 85.01300667 127.26597595 86.80241394 C127.26038535 90.53146947 127.24783451 94.26046462 127.23510742 97.98950195 C127.23009121 100.52010004 127.22552851 103.05069908 127.22143555 105.58129883 C127.21041899 111.77988974 127.19316075 117.97843562 127.17260742 124.17700195 C123.21260742 123.84700195 119.25260742 123.51700195 115.17260742 123.17700195 C114.98698242 121.47543945 114.98698242 121.47543945 114.79760742 119.73950195 C114.59135742 118.56387695 114.38510742 117.38825195 114.17260742 116.17700195 C111.65982859 114.92061254 109.27743702 114.84176859 106.51098633 114.58227539 C98.5537145 113.82086298 91.48440885 112.58019064 84.17260742 109.17700195 C83.26124023 108.75547852 82.34987305 108.33395508 81.41088867 107.8996582 C73.53068734 103.93208124 65.43063511 98.51318635 60.98510742 90.67700195 C59.32964516 87.86484207 59.32964516 87.86484207 55.89526367 87.17700195 C52.05326159 86.78286596 52.05326159 86.78286596 49.39916992 89.45825195 C48.51224115 90.51490785 47.64580984 91.58901436 46.79760742 92.67700195 C45.84701831 93.79726926 44.89125413 94.91316545 43.93041992 96.0246582 C43.46410156 96.56880371 42.9977832 97.11294922 42.51733398 97.67358398 C33.2031272 108.08696187 18.90872444 113.45983715 5.21768188 114.46832275 C0.68911865 114.63565971 -3.83924371 114.64466824 -8.37036133 114.65356445 C-10.03234602 114.66790353 -11.69431898 114.68366568 -13.35627747 114.70077515 C-17.6909047 114.74228095 -22.02545901 114.76751652 -26.36022949 114.78826904 C-33.33565122 114.82435379 -40.31089426 114.88495121 -47.28612709 114.94675827 C-49.71973748 114.96586329 -52.15329933 114.97757349 -54.58695984 114.9881897 C-56.06448478 114.99839238 -57.54200866 115.00874949 -59.01953125 115.01928711 C-60.31348312 115.02578278 -61.607435 115.03227844 -62.94059753 115.03897095 C-65.72222512 114.84765837 -65.72222512 114.84765837 -66.82739258 116.17700195 C-67.19499989 118.50518159 -67.52980839 120.83884045 -67.82739258 123.17700195 C-74.26239258 123.67200195 -74.26239258 123.67200195 -80.82739258 124.17700195 C-80.90230895 117.47333131 -80.9563526 110.76991166 -80.9921875 104.06591797 C-81.00714784 101.79178617 -81.02752344 99.51768257 -81.05371094 97.24365234 C-81.25164111 79.59681884 -80.63195129 64.34518519 -72.82739258 48.17700195 C-72.40844727 47.27594727 -71.98950195 46.37489258 -71.55786133 45.4465332 C-61.88156326 26.12182265 -44.04965437 11.70491761 -23.85375977 4.4699707 C-16.02687813 1.90171362 -8.25513407 0.08262615 0 0 Z " fill="#994334" transform="translate(150.827392578125,-0.177001953125)"/>
<path d="M0 0 C1.42059526 0.00747748 2.84120096 0.01316327 4.2618103 0.01715088 C7.96752327 0.03228913 11.67259064 0.07146518 15.37805176 0.1159668 C19.17251863 0.15717774 22.96709171 0.1752165 26.76171875 0.1953125 C34.18258326 0.23797415 41.60291929 0.30607762 49.0234375 0.390625 C49.08293579 1.14462585 49.14243408 1.89862671 49.20373535 2.67547607 C49.32815002 4.16014374 49.32815002 4.16014374 49.45507812 5.67480469 C49.57526306 7.14611847 49.57526306 7.14611847 49.69787598 8.64715576 C50.58912077 16.15757241 54.61289253 22.69856815 60.3984375 27.453125 C69.01399763 33.31113437 76.57962864 34.42559705 87.0234375 33.390625 C95.74198099 31.37865343 101.93013853 26.29795002 107.3984375 19.390625 C110.80557171 13.10053107 111.22244403 7.59956626 112.0234375 0.390625 C121.9234375 0.390625 131.8234375 0.390625 142.0234375 0.390625 C144.65861292 10.93132666 142.60189825 17.16394111 139.3984375 27.140625 C130.64442709 55.11282455 124.29247489 83.39763226 120.0234375 112.390625 C118.48623047 112.44669922 118.48623047 112.44669922 116.91796875 112.50390625 C115.55725688 112.56959579 114.19658139 112.63604209 112.8359375 112.703125 C112.16240234 112.72568359 111.48886719 112.74824219 110.79492188 112.77148438 C105.50324607 113.05542795 102.49469303 114.56006535 98.3359375 117.640625 C96.75344691 119.49389514 96.75344691 119.49389514 96.31323242 122.76708984 C94.69938298 127.30102007 93.31412835 127.9936614 89.07421875 130.1171875 C88.47355591 130.42714661 87.87289307 130.73710571 87.25402832 131.05645752 C85.291401 132.06417931 83.31428865 133.03919236 81.3359375 134.015625 C79.27472953 135.06590833 77.21792625 136.12450889 75.16105652 137.18325806 C73.7752766 137.89563626 72.38806943 138.6052447 70.99946594 139.31210327 C64.84112029 142.45170575 58.82691528 145.81776674 52.8359375 149.265625 C45.38815334 153.52389737 37.8805802 157.61511928 30.26342773 161.56152344 C22.50654746 165.60543378 14.91253918 169.93040613 7.32226562 174.27734375 C6.38576172 174.81230469 5.44925781 175.34726562 4.484375 175.8984375 C3.22826416 176.61990967 3.22826416 176.61990967 1.94677734 177.35595703 C0.0234375 178.390625 0.0234375 178.390625 -0.9765625 178.390625 C-0.97895085 177.76501206 -0.98133921 177.13939913 -0.98379993 176.49482822 C-1.04303638 161.24487078 -1.11864142 145.99508884 -1.21227741 130.74530888 C-1.25716857 123.37050369 -1.29659846 115.99574608 -1.32299805 108.62084961 C-1.34603244 102.18996753 -1.37949074 95.75923683 -1.42526406 89.32847494 C-1.44912335 85.92605876 -1.46789969 82.52379183 -1.47417641 79.12129402 C-1.48382317 75.3150936 -1.51189138 71.50943557 -1.54418945 67.70336914 C-1.54275436 66.58558578 -1.54131927 65.46780243 -1.5398407 64.31614685 C-1.63184213 56.63125623 -2.30484151 49.73027624 -7.2265625 43.578125 C-14.00396856 38.18700654 -18.06052623 36.71217379 -26.8125 37.00390625 C-32.53434138 37.70324242 -36.24630199 39.66036449 -40.2890625 43.703125 C-42.2646152 46.8493756 -43.62080418 49.93344128 -44.9765625 53.390625 C-45.3065625 53.390625 -45.6365625 53.390625 -45.9765625 53.390625 C-46.6627284 37.57291754 -46.54383857 25.04684243 -35.91796875 12.35546875 C-32.64212274 9.04007531 -29.11673072 6.51762894 -24.9765625 4.390625 C-24.34145248 4.06171768 -23.70634247 3.73281036 -23.05198669 3.39393616 C-15.42443688 -0.12744506 -8.27148713 -0.12925272 0 0 Z " fill="#EDF5FE" transform="translate(93.9765625,236.609375)"/>
<path d="M0 0 C3.61981702 2.7404874 6.80780647 5.77750083 10 9 C11.40765625 10.38832031 11.40765625 10.38832031 12.84375 11.8046875 C15.24627974 14.18697121 17.63040197 16.58502669 20 19 C22.9343483 17.68473926 24.91215198 16.29927342 27.1015625 13.953125 C27.6694751 13.35790039 28.2373877 12.76267578 28.82250977 12.14941406 C29.41733154 11.52260742 30.01215332 10.89580078 30.625 10.25 C35.91956704 4.80826569 41.04047793 0.23698701 48 -3 C48.76957031 -3.36867187 49.53914063 -3.73734375 50.33203125 -4.1171875 C58.42786068 -6.79604175 68.68132476 -5.74191124 76.43359375 -2.44921875 C86.14235508 3.03320203 91.53165906 10.59497719 95 21 C95.89632673 31.33336678 95.46456147 41.21695224 88.65663147 49.66749573 C83.59272351 55.4817778 78.19356831 60.91798194 72.71875 66.34375 C71.73631622 67.32176419 70.75418512 68.30008251 69.77233887 69.27868652 C66.16280682 72.87498984 62.54779294 76.46576596 58.93292236 80.05670166 C55.8661925 83.10355579 52.80162086 86.15255126 49.73976135 89.20429993 C48.32008843 90.61758629 46.89733001 92.02777111 45.4744873 93.43786621 C40.94177149 97.95352532 36.54436974 102.51641106 32.39028931 107.38438416 C30.65570491 109.40009558 28.83337809 111.26390589 26.875 113.0625 C26.25367188 113.65160156 25.63234375 114.24070312 24.9921875 114.84765625 C23 116 23 116 20.77992249 115.94410706 C16.82356943 114.60046498 14.40003151 111.95744615 11.52905273 109.04663086 C10.90076569 108.42535309 10.27247864 107.80407532 9.62515259 107.16397095 C7.55112419 105.10754442 5.4920685 103.03683092 3.43359375 100.96484375 C1.99359086 99.52753614 0.5529947 98.09082269 -0.88816833 96.65467834 C-3.90815505 93.64059055 -6.92078576 90.61938353 -9.9284668 87.59301758 C-13.77389315 83.72486364 -17.63691415 79.87486296 -21.50569248 76.03008175 C-24.48560211 73.06467157 -27.45586273 70.08974329 -30.4233532 67.11190987 C-31.8433103 65.68929376 -33.26621904 64.26961721 -34.6921711 62.85301018 C-36.69080188 60.8646057 -38.67605123 58.86370469 -40.65844727 56.85913086 C-41.24400894 56.28166611 -41.82957062 55.70420135 -42.43287659 55.10923767 C-49.21015779 48.19174376 -53.25470178 39.51821575 -53.375 29.75 C-53.19723329 19.9839411 -49.63688507 12.12850619 -43 5 C-30.65157409 -6.49681033 -14.67664695 -8.64044689 0 0 Z " fill="#28A5A4" transform="translate(342,67)"/>
<path d="M0 0 C0.33 0 0.66 0 1 0 C2.07564037 15.48580654 2.07564037 15.48580654 -0.41796875 18.99609375 C-2.25 20.125 -2.25 20.125 -4.078125 20.8203125 C-7.40522114 22.86255444 -8.84092318 25.38736669 -10 29 C-10.52876749 33.59525682 -10.61763097 38.14285757 -10.57641602 42.76049805 C-10.56254932 44.92978516 -10.59667121 47.09474792 -10.63476562 49.26367188 C-10.67669462 56.77474333 -10.52348674 63.29953484 -5 69 C-0.70899111 72.34698694 2.21805661 74.1007591 7.73046875 73.7890625 C12.26576674 73.56018211 16.69701181 73.35990032 21 75 C24.69939608 78.45867341 26.26910091 83.49812132 28.13183594 88.09667969 C30.20258311 92.63648423 33.75070888 96.27077367 37 100 C37.78246094 100.98097656 38.56492187 101.96195312 39.37109375 102.97265625 C47.40392859 112.60505046 58.95556347 118.52475078 70 124 C70.80308594 124.4021875 71.60617188 124.804375 72.43359375 125.21875 C72.95050781 125.4765625 73.46742188 125.734375 74 126 C74 126.99 74 127.98 74 129 C73.28527023 129.00586624 72.57054047 129.01173248 71.83415222 129.01777649 C65.05323742 129.07601021 58.2725962 129.14825867 51.49199963 129.23571491 C48.00714173 129.2801827 44.52239442 129.31948829 41.03735352 129.34643555 C37.01810348 129.37775104 32.99945467 129.43252738 28.98046875 129.48828125 C27.74668991 129.49467117 26.51291107 129.5010611 25.241745 129.50764465 C11.53017216 129.73757564 -1.05706896 133.05706896 -11 143 C-18.08852931 153.04208319 -20.44729935 161.50850669 -20.43237305 173.65820312 C-20.4425647 174.90782837 -20.45275635 176.15745361 -20.46325684 177.44494629 C-20.48816623 180.8494483 -20.50009269 184.25351979 -20.50611091 187.65807533 C-20.51553001 191.2242245 -20.54173608 194.79025063 -20.56611633 198.35632324 C-20.6096882 205.09923244 -20.63829219 211.84211762 -20.66143972 218.58512449 C-20.68854152 226.26600892 -20.73244982 233.946769 -20.77772844 241.62756443 C-20.87044121 257.41831225 -20.9421829 273.20908351 -21 289 C-23.84199416 286.23417364 -25.87754455 283.79492318 -27.734375 280.28125 C-28.22204346 279.35957031 -28.70971191 278.43789063 -29.2121582 277.48828125 C-29.719646 276.50214844 -30.22713379 275.51601563 -30.75 274.5 C-31.28004639 273.47261719 -31.81009277 272.44523437 -32.35620117 271.38671875 C-42.43318358 251.54168555 -49.86672249 230.44972595 -54.3125 208.625 C-54.45977539 207.90248047 -54.60705078 207.17996094 -54.75878906 206.43554688 C-57.65286239 191.10441368 -58.37478976 175.94227809 -58.3125 160.375 C-58.31034485 159.40444672 -58.3081897 158.43389343 -58.30596924 157.43392944 C-58.2549334 143.10569102 -57.90758438 129.07814218 -55 115 C-54.80132324 114.01692871 -54.60264648 113.03385742 -54.39794922 112.02099609 C-46.12888537 72.26135503 -28.97228179 36.89394685 -4 5 C-3.2471875 4.02804688 -2.494375 3.05609375 -1.71875 2.0546875 C-1.1515625 1.37664062 -0.584375 0.69859375 0 0 Z " fill="#FED00E" transform="translate(69,107)"/>
<path d="M0 0 C12.46791023 8.4384262 21.46449409 20.98478175 25.1875 35.6875 C26.28153981 42.55563882 26.57541673 49.42820978 26.75 56.375 C26.81251953 57.48939453 26.87503906 58.60378906 26.93945312 59.75195312 C27.09531114 67.63459038 27.09531114 67.63459038 24.72265625 70.38647461 C22.6089339 71.74617126 20.50357273 72.71367243 18.1875 73.6875 C16.59841078 74.52923292 15.01258931 75.37715713 13.4296875 76.23046875 C-11.70732069 88.81433054 -41.38042149 100.00942977 -69.8125 100.6875 C-70.4725 100.3575 -71.1325 100.0275 -71.8125 99.6875 C-71.90596653 92.2367767 -71.97664783 84.78611562 -72.01974869 77.33493614 C-72.0404551 73.87346788 -72.06845327 70.41240622 -72.11425781 66.95117188 C-72.16680697 62.95439178 -72.18558474 58.95802583 -72.203125 54.9609375 C-72.22377014 53.74264252 -72.24441528 52.52434753 -72.26568604 51.26913452 C-72.27015664 33.80591088 -66.08713367 18.88751305 -53.8671875 6.48828125 C-37.24201581 -9.36750547 -19.35459479 -11.73658321 0 0 Z " fill="#E9AB67" transform="translate(353.8125,410.3125)"/>
<path d="M0 0 C0.91120605 0.01047363 1.82241211 0.02094727 2.76123047 0.03173828 C3.74736328 0.03818359 4.73349609 0.04462891 5.74951172 0.05126953 C7.29832031 0.07640625 7.29832031 0.07640625 8.87841797 0.10205078 C9.91869141 0.11107422 10.95896484 0.12009766 12.03076172 0.12939453 C14.60520889 0.15301331 17.17920009 0.18594929 19.75341797 0.22705078 C19.09341797 0.55705078 18.43341797 0.88705078 17.75341797 1.22705078 C17.65320517 7.05789393 17.58132668 12.88821642 17.53369141 18.71972656 C17.51379658 20.69605257 17.48667074 22.67232148 17.45166016 24.6484375 C17.23510402 37.20232401 17.92868235 48.21082632 21.75341797 60.22705078 C22.06472656 61.24484619 22.37603516 62.2626416 22.69677734 63.3112793 C26.46649989 75.18522073 33.55644931 85.95945764 41.75341797 95.22705078 C42.28193359 95.83806641 42.81044922 96.44908203 43.35498047 97.07861328 C54.8036514 109.42964251 70.77134078 116.89857154 86.75341797 121.22705078 C87.38634766 121.41912109 88.01927734 121.61119141 88.67138672 121.80908203 C105.49420578 125.18627085 121.42715815 118.58680564 135.75341797 110.22705078 C139.92356398 107.44975757 143.85475363 104.37038522 147.75341797 101.22705078 C148.69056641 100.47810547 149.62771484 99.72916016 150.59326172 98.95751953 C151.30611328 98.38646484 152.01896484 97.81541016 152.75341797 97.22705078 C152.44597656 98.78552734 152.44597656 98.78552734 152.13232422 100.37548828 C151.8599545 101.78429717 151.58783252 103.19315397 151.31591797 104.60205078 C151.11385742 105.62105469 151.11385742 105.62105469 150.90771484 106.66064453 C149.84282482 112.21885102 149.32277495 117.53348101 148.75341797 123.22705078 C138.85341797 123.22705078 128.95341797 123.22705078 118.75341797 123.22705078 C118.75341797 126.19705078 118.75341797 129.16705078 118.75341797 132.22705078 C117.65524936 140.29290989 112.63720053 145.91774778 106.75341797 151.22705078 C98.09682703 157.26043234 90.2054332 158.04523499 79.75341797 157.22705078 C76.3992631 156.35745508 73.69131792 155.04548015 70.75341797 153.22705078 C69.70734375 152.60830078 69.70734375 152.60830078 68.64013672 151.97705078 C62.19262606 147.70299475 58.18662144 141.52666121 55.75341797 134.22705078 C55.75341797 130.59705078 55.75341797 126.96705078 55.75341797 123.22705078 C36.28341797 123.22705078 16.81341797 123.22705078 -3.24658203 123.22705078 C-3.24658203 122.89705078 -3.24658203 122.56705078 -3.24658203 122.22705078 C16.22341797 122.22705078 35.69341797 122.22705078 55.75341797 122.22705078 C55.02245542 118.90148019 55.02245542 118.90148019 51.54248047 117.46533203 C50.15739956 116.81708587 48.76916145 116.17555768 47.37841797 115.53955078 C40.22765687 112.11765076 33.94796233 108.21116693 27.75341797 103.22705078 C26.71507813 102.43427734 26.71507813 102.43427734 25.65576172 101.62548828 C15.57063108 93.48520391 8.09856415 81.92619524 2.75341797 70.22705078 C2.75341797 69.56705078 2.75341797 68.90705078 2.75341797 68.22705078 C1.61904297 68.27345703 0.48466797 68.31986328 -0.68408203 68.36767578 C-16.78995661 68.83549608 -16.78995661 68.83549608 -22.24658203 64.22705078 C-28.37333668 58.29076519 -29.54801346 53.43514079 -29.68737793 45.08232117 C-29.7062296 43.63754416 -29.71932674 42.19268208 -29.72705078 40.74780273 C-29.74637573 38.5628759 -29.80839823 36.38179077 -29.87158203 34.19775391 C-29.98452838 26.76015962 -29.63338273 20.98608206 -24.90161133 14.87255859 C-20.19456158 10.19258879 -15.80237353 9.01912903 -9.24658203 8.97705078 C-7.57903962 9.04048989 -5.91168869 9.1168599 -4.24658203 9.22705078 C-4.28783203 8.11330078 -4.32908203 6.99955078 -4.37158203 5.85205078 C-4.23677399 1.9426177 -4.09513746 0.41387501 0 0 Z " fill="#FEAD66" transform="translate(87.24658203125,113.77294921875)"/>
<path d="M0 0 C0.029729 1.53817383 0.029729 1.53817383 0.06005859 3.10742188 C0.65582372 32.95696839 1.73792171 62.58044166 7.66796875 91.94140625 C8 94 8 94 8 98 C0.81024181 97.49630853 -5.92012044 96.24208176 -12.875 94.375 C-13.87966309 94.10558594 -14.88432617 93.83617187 -15.91943359 93.55859375 C-42.56610056 86.26343307 -68.47985656 75.18169247 -91 59 C-91.61230469 58.56751953 -92.22460938 58.13503906 -92.85546875 57.68945312 C-100.03432544 52.59996517 -100.03432544 52.59996517 -103 50 C-103 49.34 -103 48.68 -103 48 C-102.33282959 47.64397705 -101.66565918 47.2879541 -100.97827148 46.92114258 C-89.12405161 40.58734468 -77.2985021 34.2250494 -65.625 27.5625 C-55.78279588 21.94704117 -45.82927337 16.5541867 -35.80517578 11.27197266 C-28.55295953 7.44050722 -28.55295953 7.44050722 -21.53515625 3.203125 C-20.6071521 2.61494995 -20.6071521 2.61494995 -19.66040039 2.01489258 C-18.17083491 1.04835053 -16.70837529 0.04033454 -15.25 -0.97265625 C-10.05484859 -2.61487358 -5.22408773 -1.17024214 0 0 Z " fill="#EDF5FE" transform="translate(208,411)"/>
<path d="M0 0 C1.15628906 -0.00257813 2.31257813 -0.00515625 3.50390625 -0.0078125 C6.4375 0.125 6.4375 0.125 8.4375 1.125 C7.4375 4.125 7.4375 4.125 5.125 5.6875 C0.52470473 9.85986083 -1.22414012 15.2022056 -1.93238831 21.32014084 C-2.08092793 25.0123899 -2.10307463 28.68518422 -2.08007812 32.38037109 C-2.08550962 33.79093647 -2.092638 35.20149616 -2.10131836 36.61204529 C-2.11943632 40.4160001 -2.11253157 44.21951727 -2.09980202 48.02347898 C-2.08961009 52.02303893 -2.09908514 56.02256368 -2.10534668 60.02212524 C-2.11260687 66.73845072 -2.10308012 73.4545998 -2.08398438 80.17089844 C-2.06223643 87.9088156 -2.0692583 95.64631075 -2.09129 103.38421762 C-2.1095119 110.05380249 -2.1119688 116.72326117 -2.10153532 123.39286292 C-2.09533522 127.36480653 -2.09436736 131.33655262 -2.10768127 135.30848312 C-2.11933804 139.04666441 -2.11103767 142.78430837 -2.08810425 146.52243233 C-2.08039394 148.52866527 -2.09208991 150.53494429 -2.10461426 152.54115295 C-1.99129083 164.81959437 0.69273388 175.17857261 9.4375 184.125 C13.05707344 187.27379736 16.86556545 189.60102182 21.4375 191.125 C21.4375 191.785 21.4375 192.445 21.4375 193.125 C11.97282315 195.49116921 2.77715291 194.21968526 -5.6875 189.5 C-14.65140183 183.71863076 -19.48097034 176.31187491 -22.5625 166.125 C-23.83053268 158.61563341 -23.67957603 151.13075336 -23.63671875 143.53515625 C-23.631641 142.01546865 -23.62699241 140.49577957 -23.62272644 138.97608948 C-23.61241233 135.58050029 -23.59893747 132.18493917 -23.58392334 128.78936768 C-23.55857271 122.69015415 -23.55228395 116.59095657 -23.54541016 110.49169922 C-23.53195083 100.09763794 -23.49127862 89.70392426 -23.43039131 79.3100338 C-23.39579121 73.28825925 -23.3709556 67.26675213 -23.36694336 61.24487305 C-23.36265908 55.31040898 -23.33425999 49.37650557 -23.28906822 43.44221687 C-23.27617525 41.20927252 -23.2717561 38.97626108 -23.27634621 36.74328423 C-23.28126084 33.64000018 -23.25514938 30.53838122 -23.22192383 27.43530273 C-23.23054947 26.53506378 -23.23917511 25.63482483 -23.24806213 24.70730591 C-23.12839618 18.01409294 -21.33516237 12.68881934 -17.5625 7.125 C-12.00164804 1.89563854 -7.68746726 -0.0171787 0 0 Z " fill="#C3DDF4" transform="translate(70.5625,272.875)"/>
<path d="M0 0 C1.19882813 0.00322266 2.39765625 0.00644531 3.6328125 0.00976562 C5.4890625 0.02233398 5.4890625 0.02233398 7.3828125 0.03515625 C8.64351563 0.03966797 9.90421875 0.04417969 11.203125 0.04882812 C14.30473636 0.06057665 17.40624975 0.07700458 20.5078125 0.09765625 C20.5078125 0.42765625 20.5078125 0.75765625 20.5078125 1.09765625 C19.62222656 1.23300781 18.73664063 1.36835938 17.82421875 1.5078125 C-1.73671772 4.90705953 -18.26585163 13.10882181 -32.4921875 27.09765625 C-33.19214844 27.78472656 -33.89210937 28.47179687 -34.61328125 29.1796875 C-47.97601794 43.21967791 -55.64465212 62.68707833 -55.90625 81.9453125 C-55.92561615 82.84261581 -55.9449823 83.73991913 -55.9649353 84.66441345 C-56.02413456 87.49623471 -56.07087499 90.32809796 -56.1171875 93.16015625 C-56.15542233 95.09441758 -56.19447716 97.02866288 -56.234375 98.96289062 C-56.32978607 103.67434714 -56.41403389 108.38588316 -56.4921875 113.09765625 C-57.20246094 113.23042969 -57.91273437 113.36320312 -58.64453125 113.5 C-60.02318359 113.76490234 -60.02318359 113.76490234 -61.4296875 114.03515625 C-62.80447266 114.29619141 -62.80447266 114.29619141 -64.20703125 114.5625 C-66.44508594 114.87480613 -66.44508594 114.87480613 -67.4921875 116.09765625 C-67.85979481 118.42583589 -68.19460331 120.75949475 -68.4921875 123.09765625 C-74.9271875 123.59265625 -74.9271875 123.59265625 -81.4921875 124.09765625 C-81.56710387 117.39398561 -81.62114752 110.69056595 -81.65698242 103.98657227 C-81.67194276 101.71244046 -81.69231836 99.43833687 -81.71850586 97.16430664 C-81.91643604 79.51747314 -81.29674621 64.26583948 -73.4921875 48.09765625 C-73.07324219 47.19660156 -72.65429688 46.29554687 -72.22265625 45.3671875 C-62.54635818 26.04247695 -44.71444929 11.6255719 -24.51855469 4.390625 C-16.42598422 1.73518668 -8.53290197 -0.04063287 0 0 Z " fill="#7D2E24" transform="translate(151.4921875,-0.09765625)"/>
<path d="M0 0 C-0.40992188 0.72445312 -0.81984375 1.44890625 -1.2421875 2.1953125 C-6.8115599 12.18820557 -9.94355755 20.34127652 -7.34765625 31.90625 C-3.50369112 43.65261556 5.51588368 51.76642379 14.14164734 60.20028114 C16.00461174 62.0233755 17.85957682 63.85427441 19.71252441 65.68754578 C24.97496977 70.89231148 30.2475712 76.08662209 35.53417969 81.2668457 C38.78180118 84.45020202 42.01725756 87.64549662 45.24525452 90.84874535 C46.47508142 92.06429492 47.7095677 93.27514884 48.94871521 94.48119545 C50.67196278 96.15896538 52.37938728 97.85141091 54.08398438 99.5480957 C54.85834335 100.29077698 54.85834335 100.29077698 55.64834595 101.04846191 C57.04138184 102.4535675 57.04138184 102.4535675 59 105 C58.87192168 109.01016006 56.41358328 110.92666213 53.625 113.625 C52.83351563 114.40101563 52.04203125 115.17703125 51.2265625 115.9765625 C46.79810671 120.00101882 46.79810671 120.00101882 43.7169342 119.99708557 C39.83282892 118.57166079 37.37774071 115.93484605 34.52905273 113.04663086 C33.90076569 112.42535309 33.27247864 111.80407532 32.62515259 111.16397095 C30.55112419 109.10754442 28.4920685 107.03683092 26.43359375 104.96484375 C24.99359086 103.52753614 23.5529947 102.09082269 22.11183167 100.65467834 C19.09184495 97.64059055 16.07921424 94.61938353 13.0715332 91.59301758 C9.22610685 87.72486364 5.36308585 83.87486296 1.49430752 80.03008175 C-1.48560211 77.06467157 -4.45586273 74.08974329 -7.4233532 71.11190987 C-8.8433103 69.68929376 -10.26621904 68.26961721 -11.6921711 66.85301018 C-13.69080188 64.8646057 -15.67605123 62.86370469 -17.65844727 60.85913086 C-18.24400894 60.28166611 -18.82957062 59.70420135 -19.43287659 59.10923767 C-26.21015779 52.19174376 -30.25470178 43.51821575 -30.375 33.75 C-30.19769294 24.00919351 -26.65265622 16.09514941 -20 9 C-13.92576733 3.64252678 -8.28549482 -0.20656358 0 0 Z " fill="#10938F" transform="translate(319,63)"/>
<path d="M0 0 C0.2475 1.2375 0.495 2.475 0.75 3.75 C1.68515319 7.52401107 2.87034653 9.55495822 6 12 C10.18484804 14.09242402 15.65210901 13.22935851 20.25 13.25 C21.38308594 13.270625 22.51617187 13.29125 23.68359375 13.3125 C31.77414514 13.39359848 31.77414514 13.39359848 39 10 C41.19476566 6.96913313 41.50093834 3.65978552 42 0 C50.11220559 3.77637157 57.71929988 8.22342618 61 17 C61.87405729 23.74508365 62.05137036 30.27220053 58 36 C57.319375 36.99 56.63875 37.98 55.9375 39 C48.45155327 47.48555386 36.4736934 51.59582718 25.47265625 52.41796875 C12.16898643 53.00368192 -0.70962303 50.96600147 -11.12890625 41.96484375 C-16.30100374 36.5336015 -19.48167894 31.31934213 -20.375 23.875 C-19.67413008 16.63267749 -16.42901382 10.93459412 -11.0625 6.0625 C-3.5129717 0 -3.5129717 0 0 0 Z " fill="#FEAE67" transform="translate(300,297)"/>
<path d="M0 0 C0.6671553 -0.00700928 1.33431061 -0.01401855 2.02168274 -0.02124023 C4.22126205 -0.03880818 6.41954884 -0.0272034 8.61914062 -0.01367188 C10.15084072 -0.01636718 11.68253915 -0.02024992 13.2142334 -0.02526855 C16.42212233 -0.03116191 19.62956531 -0.02260644 22.83740234 -0.00390625 C26.94685105 0.01888389 31.05525484 0.00575984 35.16466522 -0.01819611 C38.32688249 -0.03265887 41.48885251 -0.02804605 44.65107727 -0.01768494 C46.1661237 -0.01501894 47.68119266 -0.018283 49.19621277 -0.02760315 C51.31500594 -0.03777748 53.43211347 -0.02225918 55.55078125 0 C57.35802673 0.00477356 57.35802673 0.00477356 59.20178223 0.00964355 C62.8815279 0.61774641 64.07339058 1.55386839 66.27539062 4.51757812 C67.63317229 14.21601859 62.93900836 23.91068749 57.27539062 31.51757812 C52.65838098 36.51694881 47.51924967 39.88792891 41.27539062 42.51757812 C40.169375 43.05125 40.169375 43.05125 39.04101562 43.59570312 C29.92154903 46.63552532 18.50018842 45.33344821 9.99414062 41.19726562 C0.09281446 35.08006699 -6.85743193 26.98153538 -10.21679688 15.82226562 C-11.04065765 12.08320518 -11.63647637 8.27274692 -10.72460938 4.51757812 C-7.50876864 0.33418242 -5.16180774 0.01363412 0 0 Z " fill="#FE9F60" transform="translate(146.724609375,179.482421875)"/>
<path d="M0 0 C1.17820312 -0.00064453 2.35640625 -0.00128906 3.5703125 -0.00195312 C4.7975 0.01802734 6.0246875 0.03800781 7.2890625 0.05859375 C8.50851562 0.05150391 9.72796875 0.04441406 10.984375 0.03710938 C17.19131227 0.08115424 21.46602258 0.25796162 26.9140625 3.49609375 C31.79443575 8.90407492 32.09333519 12.56200247 32.15234375 19.66796875 C32.1604155 20.5831427 32.16848724 21.49831665 32.17680359 22.44122314 C32.19064879 24.38136905 32.20136899 26.32153936 32.20922852 28.26171875 C32.226414 31.22052623 32.27029257 34.17820842 32.31445312 37.13671875 C32.32458251 39.0221272 32.33309785 40.90754516 32.33984375 42.79296875 C32.35735184 43.67442566 32.37485992 44.55588257 32.39289856 45.46405029 C32.37353716 50.98321492 31.58960692 54.11327061 27.9140625 58.49609375 C21.93387343 63.75141142 15.02602844 62.74994953 7.4765625 62.80859375 C6.23583984 62.83759766 4.99511719 62.86660156 3.71679688 62.89648438 C1.92918945 62.90905273 1.92918945 62.90905273 0.10546875 62.921875 C-1.53119751 62.94374878 -1.53119751 62.94374878 -3.20092773 62.96606445 C-6.75064777 62.38781185 -7.87976941 61.27182494 -10.0859375 58.49609375 C-11.17439794 55.9796531 -11.21051243 54.91232057 -10.421875 52.27734375 C-10.10476563 51.52453125 -9.78765625 50.77171875 -9.4609375 49.99609375 C-8.56103109 47.67338015 -8.56103109 47.67338015 -8.0859375 45.49609375 C-9.40931036 43.34268846 -9.40931036 43.34268846 -11.0859375 41.49609375 C-10.86510361 37.37386123 -10.21802818 34.04957821 -8.0859375 30.49609375 C-8.6015625 29.98046875 -9.1171875 29.46484375 -9.6484375 28.93359375 C-11.69391714 25.46517176 -10.97816006 23.33951399 -10.0859375 19.49609375 C-9.0234375 17.05859375 -9.0234375 17.05859375 -8.0859375 15.49609375 C-8.6015625 14.98046875 -9.1171875 14.46484375 -9.6484375 13.93359375 C-11.0859375 11.49609375 -11.0859375 11.49609375 -11.0234375 7.99609375 C-9.32640709 1.66051357 -6.38724813 -0.01104064 0 0 Z " fill="#FE9F5F" transform="translate(426.0859375,327.50390625)"/>
<path d="M0 0 C1.23234375 -0.02900391 2.4646875 -0.05800781 3.734375 -0.08789062 C5.51714844 -0.10045898 5.51714844 -0.10045898 7.3359375 -0.11328125 C8.96474854 -0.13515503 8.96474854 -0.13515503 10.62646484 -0.1574707 C14.32362475 0.42199785 15.98057444 1.71630287 18.625 4.3125 C19.40890911 7.21789742 18.97123323 9.24586281 18.625 12.3125 C17.965 12.9725 17.305 13.6325 16.625 14.3125 C16.97855436 16.57524788 17.60044426 18.26338852 18.625 20.3125 C18.83166051 23.96350234 18.89415778 26.65455876 17.5 30.0625 C17.066875 31.17625 17.066875 31.17625 16.625 32.3125 C17.285 33.3025 17.945 34.2925 18.625 35.3125 C19.0766129 41.63508065 19.0766129 41.63508065 16.625 45.3125 C17.02071756 48.10105122 17.02071756 48.10105122 18.625 50.3125 C19.09624825 57.61684783 19.09624825 57.61684783 17.3125 60.25 C12.14579996 63.50310743 5.68602184 62.57719597 -0.1875 62.625 C-1.9519043 62.66850586 -1.9519043 62.66850586 -3.75195312 62.71289062 C-14.75994429 62.79378598 -14.75994429 62.79378598 -19.375 58.3125 C-23.69930353 53.11795901 -23.95438817 49.18063358 -23.87109375 42.71484375 C-23.87254898 41.80295792 -23.87400421 40.89107208 -23.87550354 39.95155334 C-23.87384923 38.03106478 -23.86234057 36.11056231 -23.84155273 34.19018555 C-23.81255705 31.25577375 -23.82096184 28.3231659 -23.83398438 25.38867188 C-23.8277475 23.51822042 -23.81935696 21.64777464 -23.80859375 19.77734375 C-23.81152939 18.90327377 -23.81446503 18.0292038 -23.81748962 17.12864685 C-23.72285398 11.00227586 -22.50290985 7.70639858 -18.375 3.0625 C-13.45055334 -1.24639083 -6.16646104 0.04807532 0 0 Z " fill="#FE9E5F" transform="translate(212.375,348.6875)"/>
<path d="M0 0 C1.37671875 0.01353516 1.37671875 0.01353516 2.78125 0.02734375 C5.02111556 0.05067568 7.26041183 0.08340765 9.5 0.125 C6.54214378 2.09690415 4.3133107 2.87149956 0.9375 3.875 C-13.84478065 8.7312727 -25.21351926 18.36812436 -32.5 32.125 C-37.48701057 42.6930851 -38.80679874 52.21192865 -38.9140625 63.8125 C-38.93342865 65.11074707 -38.9527948 66.40899414 -38.9727478 67.74658203 C-39.02374737 71.17247594 -39.06354352 74.5984088 -39.10089111 78.0244751 C-39.1411344 81.53073509 -39.19213323 85.03683753 -39.2421875 88.54296875 C-39.33856482 95.40353028 -39.42308985 102.26419333 -39.5 109.125 C-38.84 109.455 -38.18 109.785 -37.5 110.125 C-42.35729645 111.09799156 -46.9500625 111.24538805 -51.875 111.1875 C-52.61105469 111.18298828 -53.34710938 111.17847656 -54.10546875 111.17382812 C-55.90368158 111.16215142 -57.70185197 111.14422011 -59.5 111.125 C-59.5933431 103.26581786 -59.66408687 95.40676951 -59.70724869 87.54716969 C-59.72798121 83.89623522 -59.75602991 80.24568444 -59.80175781 76.5949707 C-59.8457361 73.06117255 -59.86924437 69.52773962 -59.87950897 65.99368858 C-59.89032181 64.01258149 -59.92146133 62.03161805 -59.95318604 60.05073547 C-59.95721396 43.51497291 -54.22983185 29.38374164 -42.83984375 17.40625 C-30.81459251 5.68213193 -16.75443412 -0.31658088 0 0 Z " fill="#DA9652" transform="translate(321.5,400.875)"/>
<path d="M0 0 C26.07 0 52.14 0 79 0 C79 4 79 4 77 7 C77.29812357 11.09919904 77.87367607 14.45612679 80 18 C78.47015381 20.95742798 78.47015381 20.95742798 76 24 C73.20480851 24.59244027 71.26646065 24.76641235 68.47753906 24.68115234 C67.3501255 24.68246658 67.3501255 24.68246658 66.19993591 24.68380737 C63.72076708 24.67963398 61.24431969 24.63300048 58.765625 24.5859375 C57.04499795 24.57474431 55.32435175 24.5662047 53.60369873 24.56021118 C49.07894931 24.53732211 44.55535893 24.4783993 40.03106689 24.4119873 C35.41279785 24.3505658 30.79434117 24.32319652 26.17578125 24.29296875 C17.11659679 24.22865468 8.05857618 24.12312996 -1 24 C-0.67 16.08 -0.34 8.16 0 0 Z " fill="#445D9F" transform="translate(339,357)"/>
<path d="M0 0 C23.76 0 47.52 0 72 0 C72.495 11.88 72.495 11.88 73 24 C47.92 24 22.84 24 -3 24 C-2.34 22.35 -1.68 20.7 -1 19 C-0.60968545 13.65781245 -0.60968545 13.65781245 -3 9 C-2.56765671 5.75742534 -1.23098208 3.0774552 0 0 Z " fill="#455D9F" transform="translate(231,357)"/>
<path d="M0 0 C0.80920898 0.21329956 0.80920898 0.21329956 1.63476562 0.4309082 C7.3473126 1.83264345 12.63241682 2.27843318 18.5 2.1875 C19.29019531 2.18685547 20.08039063 2.18621094 20.89453125 2.18554688 C26.32564034 2.14554689 31.61131132 1.67358608 37 1 C37.09965569 5.26832981 37.17183391 9.53602469 37.21972656 13.80517578 C37.23971295 15.25418917 37.26691197 16.70312325 37.30175781 18.15185547 C37.65333347 33.15586355 37.65333347 33.15586355 33 40 C28.77462327 44.01410789 24.99628118 46.28506411 19.125 46.3125 C13.79475251 46.17181898 10.18610054 45.2221069 6.33984375 41.3125 C1.86474097 36.23436919 0.83802466 33.14400113 0.68359375 26.3671875 C0.66281265 25.61535187 0.64203156 24.86351624 0.62062073 24.08889771 C0.55517295 21.68435915 0.49626262 19.27971033 0.4375 16.875 C0.39431023 15.24608229 0.35069579 13.61717578 0.30664062 11.98828125 C0.19949649 7.99230085 0.09821567 3.99620941 0 0 Z " fill="#FD3745" transform="translate(302,346)"/>
<path d="M0 0 C1.58974827 -0.02715906 3.17963184 -0.04646788 4.76953125 -0.0625 C5.65487549 -0.07410156 6.54021973 -0.08570312 7.45239258 -0.09765625 C12.21353741 0.0848505 15.49632774 1.58070213 18.94921875 4.83984375 C25.97905874 12.49709339 25.23783529 19.10555426 25.3125 29.25 C25.34150391 30.54808594 25.37050781 31.84617188 25.40039062 33.18359375 C25.45332999 41.17336529 25.24232526 47.35382282 19.62280273 53.50830078 C13.90494974 58.72566689 7.96840271 59.29762972 0.625 59.125 C-0.47908203 59.11146484 -0.47908203 59.11146484 -1.60546875 59.09765625 C-3.4037888 59.07430144 -5.20193911 59.03843836 -7 59 C-6.73445313 58.18917969 -6.46890625 57.37835938 -6.1953125 56.54296875 C-5.84210938 55.43566406 -5.48890625 54.32835937 -5.125 53.1875 C-4.77695312 52.10855469 -4.42890625 51.02960938 -4.0703125 49.91796875 C-0.93284323 38.94832939 -0.59576837 28.13492758 -0.375 16.8125 C-0.33672897 15.17641359 -0.29767229 13.54034535 -0.2578125 11.90429688 C-0.162825 7.93634919 -0.07844144 3.96830784 0 0 Z " fill="#F79D58" transform="translate(266,123)"/>
<path d="M0 0 C1.33466309 0.01945679 1.33466309 0.01945679 2.69628906 0.03930664 C3.7051416 0.06432251 3.7051416 0.06432251 4.734375 0.08984375 C4.74895752 0.86884033 4.76354004 1.64783691 4.77856445 2.45043945 C5.18001711 21.71307439 5.86777434 40.57468564 11.734375 59.08984375 C-6.45606213 59.88457159 -6.45606213 59.88457159 -12.265625 55.08984375 C-17.67916943 49.85814965 -19.50812447 45.47436664 -19.671875 38.015625 C-19.70749941 35.88047329 -19.73467817 33.74602352 -19.74609375 31.6105957 C-19.7654187 29.42566887 -19.8274412 27.24458374 -19.890625 25.06054688 C-20.00358793 17.62536267 -19.65235426 11.84959699 -14.92675781 5.73535156 C-10.44473698 1.29548966 -6.25748271 -0.11874761 0 0 Z " fill="#F79D58" transform="translate(77.265625,122.91015625)"/>
<path d="M0 0 C1.44789177 0.02010961 2.89581073 0.03835245 4.34375 0.0546875 C7.85474127 0.09829847 11.3646912 0.1670743 14.875 0.25 C12.03011496 2.14659002 9.28869043 3.4534556 6.1875 4.875 C-4.35511591 10.16538386 -9.79218245 17.34669268 -14.125 28.25 C-15.01017972 31.26727127 -15.60684817 34.14108902 -16.125 37.25 C-17.115 37.20359375 -18.105 37.1571875 -19.125 37.109375 C-29.76959804 36.67782495 -29.76959804 36.67782495 -39.125 41.25 C-42.68060963 44.80560963 -44.31674232 48.63894291 -46.125 53.25 C-46.455 53.25 -46.785 53.25 -47.125 53.25 C-47.8111659 37.43229254 -47.69227607 24.90621743 -37.06640625 12.21484375 C-33.79056024 8.89945031 -30.26516822 6.37700394 -26.125 4.25 C-25.48014648 3.90437012 -24.83529297 3.55874023 -24.17089844 3.20263672 C-16.27735917 -0.53910592 -8.51007499 -0.20718143 0 0 Z " fill="#D9E9FA" transform="translate(95.125,236.75)"/>
<path d="M0 0 C2.24658203 -0.34057617 2.24658203 -0.34057617 5.0078125 -0.29296875 C5.99394531 -0.28330078 6.98007813 -0.27363281 7.99609375 -0.26367188 C9.02863281 -0.23853516 10.06117188 -0.21339844 11.125 -0.1875 C12.68541016 -0.16719727 12.68541016 -0.16719727 14.27734375 -0.14648438 C16.85207627 -0.11105228 19.4257833 -0.06165221 22 0 C21.67 0.66 21.34 1.32 21 2 C19.77851689 11.7369654 22.34174197 19.8021945 27.94921875 27.76953125 C33.09416126 33.93053063 38.74314563 37.66320341 46 41 C45.505 41.99 45.505 41.99 45 43 C31.45672707 43.72209394 21.34976618 42.85667625 10.5625 33.6875 C3.03935639 26.39342647 -2.03536439 17.81204193 -2.3125 7.125 C-2.29414131 3.71028304 -2.01417312 3.02125969 0 0 Z " fill="#F78748" transform="translate(138,181)"/>
<path d="M0 0 C1.27230469 0.00902344 2.54460937 0.01804687 3.85546875 0.02734375 C5.31919922 0.04474609 5.31919922 0.04474609 6.8125 0.0625 C6.07 0.59875 5.3275 1.135 4.5625 1.6875 C1.10510749 4.6734299 -1.73682556 7.51426381 -2.56176758 12.17871094 C-2.71527701 14.66938192 -2.74200248 17.1296961 -2.71875 19.625 C-2.7225769 20.53451416 -2.72640381 21.44402832 -2.73034668 22.38110352 C-2.73305955 24.29737459 -2.72574226 26.21368309 -2.70898438 28.12988281 C-2.68756536 31.05357871 -2.70880685 33.97481752 -2.734375 36.8984375 C-2.73173161 38.76563039 -2.72660641 40.63282176 -2.71875 42.5 C-2.73089539 43.80336304 -2.73089539 43.80336304 -2.74328613 45.13305664 C-2.6594203 50.59424941 -1.81853821 53.73178228 1.8125 58.0625 C4.4216387 60.38527416 4.4216387 60.38527416 6.8125 62.0625 C-5.79999288 62.68448595 -5.79999288 62.68448595 -10.8125 60.4375 C-15.67894203 55.57105797 -17.64020981 51.91065556 -17.71763611 45.10740662 C-17.70640213 44.23536087 -17.69516815 43.36331512 -17.68359375 42.46484375 C-17.68504898 41.55295792 -17.68650421 40.64107208 -17.68800354 39.70155334 C-17.68634923 37.78106478 -17.67484057 35.86056231 -17.65405273 33.94018555 C-17.62505705 31.00577375 -17.63346184 28.0731659 -17.64648438 25.13867188 C-17.6402475 23.26822042 -17.63185696 21.39777464 -17.62109375 19.52734375 C-17.62402939 18.65327377 -17.62696503 17.7792038 -17.62998962 16.87864685 C-17.53535398 10.75227586 -16.31540985 7.45639858 -12.1875 2.8125 C-8.42395542 -0.48060151 -4.79513081 -0.04399203 0 0 Z " fill="#F78748" transform="translate(206.1875,348.9375)"/>
<path d="M0 0 C1.28455078 -0.02900391 2.56910156 -0.05800781 3.89257812 -0.08789062 C5.13072266 -0.09626953 6.36886719 -0.10464844 7.64453125 -0.11328125 C9.3457312 -0.13515503 9.3457312 -0.13515503 11.08129883 -0.1574707 C14.87741296 0.41688438 16.4646807 1.65747371 19.1875 4.3125 C21.66247559 8.02496338 21.84653459 11.00843462 21.1875 15.3125 C19.48358505 18.7203299 18.3387862 20.73501031 14.90429688 22.45776367 C9.94222518 24.01888993 4.84742042 23.63974263 -0.3125 23.625 C-2.00439453 23.64916992 -2.00439453 23.64916992 -3.73046875 23.67382812 C-5.36435547 23.67479492 -5.36435547 23.67479492 -7.03125 23.67578125 C-8.5152832 23.68025269 -8.5152832 23.68025269 -10.02929688 23.68481445 C-14.27681352 23.11661595 -16.91536829 21.39524517 -19.625 18.125 C-21.17485209 14.45429769 -21.64617381 11.19287262 -20.8125 7.3125 C-15.80055456 -1.30062106 -8.96397342 0.06686206 0 0 Z " fill="#994334" transform="translate(320.8125,287.6875)"/>
<path d="M0 0 C4.16085446 1.79673261 6.58049907 4.19078573 9 8 C9.58296095 11.15868904 9.559194 14.23362455 9.5 17.4375 C9.51546875 18.27087891 9.5309375 19.10425781 9.546875 19.96289062 C9.51218044 25.44896743 8.66348018 28.67347679 5 33 C0.77082235 36.04894203 -2.77659711 36.52522982 -7.8125 35.78515625 C-12.31210994 34.17011768 -14.92660556 30.14678889 -17 26 C-17.17794636 23.23453858 -17.27761722 20.51736725 -17.3125 17.75 C-17.34150391 16.99847656 -17.37050781 16.24695313 -17.40039062 15.47265625 C-17.46066588 10.1591611 -16.48960831 7.22865979 -13 3 C-8.95711409 -0.36907159 -5.06753389 -0.75189019 0 0 Z " fill="#1D2D63" transform="translate(135,126)"/>
<path d="M0 0 C3.62440055 2.55355493 5.56824789 4.70178178 6.75 8.9375 C7.02447604 11.66545572 7.20343163 14.26954109 7.25 17 C7.26853027 17.68473389 7.28706055 18.36946777 7.30615234 19.07495117 C7.24362208 24.15400226 5.91230505 27.02637955 2.75 30.9375 C-0.51101527 33.69124623 -2.51411399 34.83237343 -6.75 35.4375 C-11.60020474 34.74461361 -14.3593712 32.70178606 -17.88671875 29.41015625 C-20.0586963 25.47072419 -19.80287218 21.55058698 -19.8125 17.125 C-19.84923828 16.24779297 -19.88597656 15.37058594 -19.92382812 14.46679688 C-19.9635703 8.56287656 -18.8598207 5.46698857 -14.73803711 1.20825195 C-10.45906185 -2.44590165 -4.99941091 -1.6344228 0 0 Z " fill="#1E2D63" transform="translate(224.25,127.0625)"/>
<path d="M0 0 C1.17046875 0.03609375 2.3409375 0.0721875 3.546875 0.109375 C4.43890625 0.15578125 5.3309375 0.2021875 6.25 0.25 C5.59773438 0.82878906 4.94546875 1.40757812 4.2734375 2.00390625 C1.7865556 4.76444118 1.80624716 6.64629044 1.96875 10.2890625 C2.19905553 12.44319252 2.19905553 12.44319252 3.375 15.0625 C3.66375 15.784375 3.9525 16.50625 4.25 17.25 C3.59 18.24 2.93 19.23 2.25 20.25 C1.97714139 23.93359118 1.96897336 26.563046 3.375 30 C3.66375 30.7425 3.9525 31.485 4.25 32.25 C3.59 33.24 2.93 34.23 2.25 35.25 C1.87832816 38.01020996 2.07149364 40.43852476 2.25 43.25 C2.91 43.91 3.57 44.57 4.25 45.25 C3.71428571 48.78571429 3.71428571 48.78571429 2.25 50.25 C1.78656039 56.83512751 1.78656039 56.83512751 5.25 62.25 C3.33458862 62.35841951 1.41740227 62.43578079 -0.5 62.5 C-1.56734375 62.54640625 -2.6346875 62.5928125 -3.734375 62.640625 C-6.75 62.25 -6.75 62.25 -9.078125 60.484375 C-10.76712859 58.22710852 -11.54601084 57.04143059 -11.75 54.25 C-11.0859375 52.03125 -11.0859375 52.03125 -10.125 49.75 C-9.22509359 47.4272864 -9.22509359 47.4272864 -8.75 45.25 C-10.07337286 43.09659471 -10.07337286 43.09659471 -11.75 41.25 C-11.52916611 37.12776748 -10.88209068 33.80348446 -8.75 30.25 C-9.265625 29.734375 -9.78125 29.21875 -10.3125 28.6875 C-12.35797964 25.21907801 -11.64222256 23.09342024 -10.75 19.25 C-9.6875 16.8125 -9.6875 16.8125 -8.75 15.25 C-9.265625 14.734375 -9.78125 14.21875 -10.3125 13.6875 C-11.75 11.25 -11.75 11.25 -11.6875 7.75 C-9.87602999 0.98717863 -6.73649369 -0.26945975 0 0 Z " fill="#F58749" transform="translate(426.75,327.75)"/>
<path d="M0 0 C0.48828125 2.01822917 0.9765625 4.03645833 1.46484375 6.0546875 C1.94846992 8.0585657 1.94846992 8.0585657 3 10 C2.38125 10.556875 1.7625 11.11375 1.125 11.6875 C-2.83631166 15.99833916 -3.41144637 20.04930257 -3.2421875 25.73828125 C-2.48111273 32.84573754 1.75754734 38.4256121 7 43 C14.23382957 47.67464307 21.4816242 50.02742954 30 51 C30 51.33 30 51.66 30 52 C14.97494652 52.7278013 0.88980871 52.34774117 -11.12890625 41.96484375 C-16.30100374 36.5336015 -19.48167894 31.31934213 -20.375 23.875 C-19.67413008 16.63267749 -16.42901382 10.93459412 -11.0625 6.0625 C-3.5129717 0 -3.5129717 0 0 0 Z " fill="#F69C59" transform="translate(300,297)"/>
<path d="M0 0 C2.203125 1.515625 2.203125 1.515625 4 4 C4.2906124 6.89449949 4.38186045 9.37949935 4.25 12.25 C4.23195312 12.99507812 4.21390625 13.74015625 4.1953125 14.5078125 C4.14835649 16.33909701 4.07661652 18.16971649 4 20 C4.67546875 19.97679687 5.3509375 19.95359375 6.046875 19.9296875 C7.38492188 19.90261719 7.38492188 19.90261719 8.75 19.875 C10.07257813 19.84019531 10.07257813 19.84019531 11.421875 19.8046875 C14.17990095 20.01362886 15.69903523 20.48936661 18 22 C20.32749345 25.49124017 20.50299316 26.89222251 20 31 C18.1329009 33.30275556 16.64352259 34.67823871 14 36 C-1.36775354 37.21828171 -1.36775354 37.21828171 -6.375 33.8125 C-11.702396 28.10457572 -11.3653233 22.36436517 -11.375 14.9375 C-11.39949219 13.94427734 -11.42398438 12.95105469 -11.44921875 11.92773438 C-11.47840913 4.70311644 -11.47840913 4.70311644 -9.1953125 1.34765625 C-5.95070018 -0.64414313 -3.72547226 -0.53221032 0 0 Z " fill="#C07F52" transform="translate(170,134)"/>
<path d="M0 0 C4.95 0.99 9.9 1.98 15 3 C15.02578125 5.16820312 15.0515625 7.33640625 15.078125 9.5703125 C15.11660991 11.68534972 15.16174881 13.80014843 15.20751953 15.91503906 C15.2356311 17.37748705 15.25689431 18.8400842 15.27099609 20.30273438 C15.29256419 22.41353169 15.33927656 24.52255429 15.390625 26.6328125 C15.41157227 27.90012207 15.43251953 29.16743164 15.45410156 30.47314453 C16.44124525 36.85072847 20.44185496 40.69508524 25 45 C23.36987162 46.63012838 21.55562555 46.20976456 19.3125 46.25 C13.88454935 46.16506763 10.26415828 45.3014503 6.33984375 41.3125 C1.86474097 36.23436919 0.83802466 33.14400113 0.68359375 26.3671875 C0.66281265 25.61535187 0.64203156 24.86351624 0.62062073 24.08889771 C0.55517295 21.68435915 0.49626262 19.27971033 0.4375 16.875 C0.39431023 15.24608229 0.35069579 13.61717578 0.30664062 11.98828125 C0.19869615 7.99229894 0.09958802 3.99623436 0 0 Z " fill="#EA2B3D" transform="translate(302,346)"/>
<path d="M0 0 C3.20612169 0.74560969 3.53643529 1.33858582 5.3125 4 C8.60634444 9.84995086 11.43465844 16.81136108 10.6875 23.625 C9.65625 25.4140625 9.65625 25.4140625 7.6875 26.625 C5.08708045 26.92369684 2.78050841 27.04445157 0.1875 27 C-0.48925781 27.01160156 -1.16601562 27.02320313 -1.86328125 27.03515625 C-4.74735176 27.01809074 -6.82839524 26.93909178 -9.28125 25.34765625 C-11.29292198 21.98724965 -10.18681077 18.22695098 -9.3125 14.625 C-4.60654875 1.24501318 -4.60654875 1.24501318 0 0 Z " fill="#A8683D" transform="translate(380.3125,206.375)"/>
<path d="M0 0 C3.20612169 0.74560969 3.53643529 1.33858582 5.3125 4 C8.60634444 9.84995086 11.43465844 16.81136108 10.6875 23.625 C9.65625 25.4140625 9.65625 25.4140625 7.6875 26.625 C5.08708045 26.92369684 2.78050841 27.04445157 0.1875 27 C-0.48925781 27.01160156 -1.16601562 27.02320313 -1.86328125 27.03515625 C-4.74735176 27.01809074 -6.82839524 26.93909178 -9.28125 25.34765625 C-11.29292198 21.98724965 -10.18681077 18.22695098 -9.3125 14.625 C-4.60654875 1.24501318 -4.60654875 1.24501318 0 0 Z " fill="#A8683D" transform="translate(261.3125,206.375)"/>
<path d="M0 0 C0.390625 1.953125 0.78125 3.90625 1.171875 5.859375 C2.28695571 8.74175345 3.5928553 10.05392531 6 12 C9.0849946 12.63995961 9.0849946 12.63995961 12.515625 12.609375 C13.76601563 12.64160156 15.01640625 12.67382812 16.3046875 12.70703125 C17.60664063 12.72121094 18.90859375 12.73539062 20.25 12.75 C21.56742187 12.77964844 22.88484375 12.80929687 24.2421875 12.83984375 C27.49485343 12.91055388 30.74680193 12.96324786 34 13 C32.29248047 17.77636719 32.29248047 17.77636719 29.66015625 19.7890625 C24.25283306 21.57803816 19.0945903 21.4336227 13.4375 21.375 C11.75237305 21.39240234 11.75237305 21.39240234 10.03320312 21.41015625 C8.40608398 21.40435547 8.40608398 21.40435547 6.74609375 21.3984375 C5.76310303 21.39505371 4.7801123 21.39166992 3.76733398 21.38818359 C-0.46335071 20.79473069 -3.11015672 19.07394879 -5.8125 15.8125 C-7.38148638 12.09647963 -7.73731409 8.97508468 -7 5 C-3.97916667 0 -3.97916667 0 0 0 Z " fill="#7F3126" transform="translate(307,290)"/>
<path d="M0 0 C4.62 0 9.24 0 14 0 C14 7.92 14 15.84 14 24 C8.39 24 2.78 24 -3 24 C-2.34 22.35 -1.68 20.7 -1 19 C-0.60968545 13.65781245 -0.60968545 13.65781245 -3 9 C-2.56765671 5.75742534 -1.23098208 3.0774552 0 0 Z " fill="#304C88" transform="translate(231,357)"/>
<path d="M0 0 C1.36147955 2.7229591 0.41125952 4.19516033 -0.44824219 6.98095703 C-1.38628094 10.41351478 -1.73070318 13.90835923 -2.125 17.4375 C-2.41375 19.933125 -2.7025 22.42875 -3 25 C-12.9 25 -22.8 25 -33 25 C-33 23.68 -33 22.36 -33 21 C-32.27296875 20.731875 -31.5459375 20.46375 -30.796875 20.1875 C-18.89358574 15.54826931 -9.23453354 8.76814296 0 0 Z " fill="#FECE0F" transform="translate(239,211)"/>
<path d="M0 0 C4.21991975 0.32138462 6.62477605 0.71843517 10.171875 3.1796875 C12.62942904 6.82638059 12.72695581 8.73162183 12.109375 13.0546875 C10.75690611 16.25790328 9.82378782 17.64920996 6.796875 19.3671875 C3.62182807 20.17940881 1.37132147 20.53038803 -1.890625 20.0546875 C-4.85978717 18.00926467 -6.46450923 16.35657712 -7.59765625 12.89453125 C-8.03087255 10.46932972 -8.20954117 8.49971148 -7.890625 6.0546875 C-5.515625 3.0546875 -5.515625 3.0546875 -2.890625 1.0546875 C-1.890625 0.0546875 -1.890625 0.0546875 0 0 Z " fill="#1F2D62" transform="translate(357.890625,269.9453125)"/>
<path d="M0 0 C4.21991975 0.32138462 6.62477605 0.71843517 10.171875 3.1796875 C12.62942904 6.82638059 12.72695581 8.73162183 12.109375 13.0546875 C10.75690611 16.25790328 9.82378782 17.64920996 6.796875 19.3671875 C3.62182807 20.17940881 1.37132147 20.53038803 -1.890625 20.0546875 C-4.85978717 18.00926467 -6.46450923 16.35657712 -7.59765625 12.89453125 C-8.03087255 10.46932972 -8.20954117 8.49971148 -7.890625 6.0546875 C-5.515625 3.0546875 -5.515625 3.0546875 -2.890625 1.0546875 C-1.890625 0.0546875 -1.890625 0.0546875 0 0 Z " fill="#1F2D62" transform="translate(278.890625,269.9453125)"/>
</svg>